<svg width="43" height="34" viewBox="0 0 43 34" fill="none" xmlns="http://www.w3.org/2000/svg">
<path d="M38.7555 18.6245C37.8877 17.8378 36.8557 17.2077 35.7137 16.7477C36.5943 13.9261 36.5281 10.249 33.9868 7.33754C34.2753 6.71262 34.0977 5.9857 33.454 5.49304C30.7312 3.40952 26.7163 2.3528 21.8027 2.3528C16.8891 2.3528 12.8742 3.40952 10.1514 5.49338C9.50773 5.98604 9.33014 6.71296 9.61867 7.33788C7.0778 10.2493 7.01201 13.9264 7.89222 16.7481C6.75014 17.2077 5.71771 17.8378 4.8504 18.6249C3.07149 20.2385 2.19343 22.303 2.37876 24.4385C2.74082 28.6246 7.17928 31.9046 12.4803 31.9046C12.713 31.9046 12.946 31.8978 13.1812 31.8855C13.5295 31.8665 13.8546 31.739 14.0851 31.5299C14.3143 31.3225 14.4299 31.0498 14.4059 30.7741L13.201 16.8643C13.1511 16.2901 12.5173 15.8603 11.7962 15.8957C11.3198 15.9215 10.8541 15.982 10.3948 16.0579C9.74251 13.7751 9.80099 10.7515 11.8319 8.46634C12.3298 8.4388 12.8187 8.28546 13.2057 7.98932C15.0814 6.55418 18.0686 5.82658 21.8023 5.82658C25.536 5.82658 28.5232 6.55418 30.3989 7.98932C30.7854 8.28512 31.2748 8.43914 31.7723 8.46668C33.8036 10.7515 33.8616 13.7754 33.2098 16.0579C32.751 15.982 32.2848 15.9215 31.8084 15.8957C31.0877 15.8596 30.4535 16.2897 30.4036 16.8643L29.1987 30.7741C29.1746 31.0498 29.2903 31.3222 29.5195 31.5299C29.7496 31.739 30.0746 31.8665 30.4234 31.8855C30.6586 31.8978 30.8921 31.9046 31.1243 31.9046C36.4257 31.9046 40.8638 28.6249 41.2258 24.4385C41.4124 22.303 40.5344 20.2382 38.7555 18.6245Z" fill="#2A7AE4"/>
<path d="M15.3824 16.5726C14.6565 16.6121 14.1083 17.1095 14.1577 17.6837L15.2456 30.2396C15.2929 30.7897 15.8722 31.211 16.5584 31.211C16.5894 31.211 16.6195 31.2096 16.6505 31.2083C17.3763 31.1688 17.9245 30.6714 17.8751 30.0965L16.7872 17.5413C16.7382 16.9667 16.1048 16.5379 15.3824 16.5726Z" fill="#F75A5A"/>
<path d="M28.2222 16.5726C27.5093 16.5373 26.8668 16.967 26.8174 17.5413L25.7295 30.0968C25.6796 30.6714 26.2279 31.1688 26.9541 31.2086C26.9851 31.21 27.0152 31.2113 27.0461 31.2113C27.7324 31.2113 28.3116 30.7901 28.3589 30.2399L29.4468 17.6841C29.4967 17.1091 28.948 16.6117 28.2222 16.5726Z" fill="#F75A5A"/>
</svg>
